<svg xmlns="http://www.w3.org/2000/svg" viewBox="0 0 48.19 26"><defs><style>.cls-1{fill:#859900;}</style></defs><title>employers</title><g id="Layer_2" data-name="Layer 2"><g id="Layer_1-2" data-name="Layer 1"><path class="cls-1" d="M18.13,14.48A8.16,8.16,0,0,0,21,8.28a8.31,8.31,0,0,0-16.61,0,8.07,8.07,0,0,0,2.93,6.22A13,13,0,0,0,0,26H25.6S22.54,16.5,18.13,14.48Z"/><path class="cls-1" d="M40.72,14.48a8.16,8.16,0,0,0,2.85-6.2A8.31,8.31,0,0,0,27,8.32a8.07,8.07,0,0,0,2.93,6.22A13,13,0,0,0,22.59,26h25.6S45.13,16.5,40.72,14.48Z"/></g></g></svg>