<svg xmlns="http://www.w3.org/2000/svg" xmlns:xlink="http://www.w3.org/1999/xlink" viewBox="0 0 275.97 356.66"><defs><style>.cls-1{fill:url(#linear-gradient);}.cls-2{fill:#fff;}</style><linearGradient id="linear-gradient" x1="76.41" y1="206.39" x2="191.22" y2="405.25" gradientUnits="userSpaceOnUse"><stop offset="0" stop-color="#839496"/><stop offset="0.57" stop-color="#fff"/></linearGradient></defs><title>roosterRosterLogo</title><g id="Layer_2" data-name="Layer 2"><g id="Layer_1-2" data-name="Layer 1"><path class="cls-1" d="M50,356.33H276s-85-41.58-102.83-109.79S50,221.64,50,221.64Z"/><path class="cls-2" d="M151.76,129.41c-1.76,0-3.51.08-5.24.21q-3.5-.2-7.34-.21C229.32,111.49,250.86,79.64,251.94,0c-13,33.85-69.5,60.72-69.5,60.72S203.08,32.85,197.65,8c-14.12,30.86-60.81,41.81-60.81,41.81s11.95-5,8-33.84c-4,21.9-43.79,47.79-84.12,66.7s-19.4,55.76-19.4,55.76S4.44,157.28,0,172.22c7.8-.92,30.49-6,47.3,5.63A17.48,17.48,0,0,0,50,180.51V356.66c1-27.08,105.38-62.67,146-95.48,18.1-14.62,29-34.56,29-58.36A73.28,73.28,0,0,0,151.76,129.41Z"/></g></g></svg>