<svg xmlns="http://www.w3.org/2000/svg" viewBox="0 0 28.68 29.5"><defs><style>.cls-1{fill:#859900;}</style></defs><title>set schedule</title><g id="Layer_2" data-name="Layer 2"><g id="Layer_1-2" data-name="Layer 1"><path class="cls-1" d="M15,26.27,16.7,29.5h12s-3.43-10.86-8.36-13.12A9.32,9.32,0,1,0,4.9,9.29a9.46,9.46,0,0,0,3.29,7.17A14.59,14.59,0,0,0,0,29.5H11.89l1.7-3.28C13.79,25.86,14.79,25.91,15,26.27ZM11.8,19.5h5c.68,0,.92.55.54,1.25L15,25.1a1,1,0,0,1-1.4,0l-2.34-4.35C10.88,20,11.12,19.5,11.8,19.5Z"/></g></g></svg>